<?xml version="1.0" encoding="UTF-8"?>
<svg version="1.1" width="1094.73" height="599.82" xmlns="http://www.w3.org/2000/svg">
    <defs>
        <style type="text/css">
            svg { stroke-linecap: round; stroke-linejoin: round; fill-rule: evenodd }
            text { font-family: "Menlo"; font-size: 0.716px }
            .stroke { stroke: #235d91; stroke-width: 0.07; fill: none }
            .fill { fill: #235d91 }
            .highlight-fill { fill: #c24a47 }
        </style>
        <mask id="foreground-plane-keep-out-mask">
            <rect x="-2" y="-2.5" width="36.491" height="19.994" fill="white"/>
            <g class="stroke" style="stroke: black; stroke-width: 0.21">
                <line x1="30.777" y1="10.509" x2="32.205" y2="10.509"/>
                <path d="M 1.714 8.509 A 0.286 0.286 0 0 1 2 8.795"/>
                <path d="M 18 11.286 A 0.286 0.286 0 0 1 18.286 11"/>
                <path d="M 20.5 8.795 A 0.286 0.286 0 0 1 20.786 8.509"/>
                <line x1="20.786" y1="10.509" x2="22.214" y2="10.509"/>
                <path d="M 20.786 10.509 A 0.286 0.286 0 0 1 20.5 10.223"/>
                <path d="M 22.5 10.223 A 0.286 0.286 0 0 1 22.214 10.509"/>
                <line x1="22.214" y1="8.509" x2="20.786" y2="8.509"/>
                <line x1="22.5" y1="10.223" x2="22.5" y2="8.795"/>
                <path d="M 22.214 8.509 A 0.286 0.286 0 0 1 22.5 8.795"/>
                <line x1="20.5" y1="8.795" x2="20.5" y2="10.223"/>
                <path d="M 9.218 8.509 A 0.286 0.286 0 0 1 9.504 8.795"/>
                <line x1="9.504" y1="7.714" x2="9.504" y2="6.286"/>
                <path d="M 23 8.795 A 0.286 0.286 0 0 1 23.286 8.509"/>
                <path d="M 12.491 8.795 A 0.286 0.286 0 0 1 12.777 8.509"/>
                <line x1="12.777" y1="10.509" x2="14.205" y2="10.509"/>
                <path d="M 12.777 10.509 A 0.286 0.286 0 0 1 12.491 10.223"/>
                <path d="M 14.491 10.223 A 0.286 0.286 0 0 1 14.205 10.509"/>
                <line x1="14.205" y1="8.509" x2="12.777" y2="8.509"/>
                <line x1="14.491" y1="10.223" x2="14.491" y2="8.795"/>
                <path d="M 14.205 8.509 A 0.286 0.286 0 0 1 14.491 8.795"/>
                <line x1="12.491" y1="8.795" x2="12.491" y2="10.223"/>
                <path d="M 30.491 6.286 A 0.286 0.286 0 0 1 30.777 6"/>
                <path d="M 10.291 15.494 A 0.286 0.286 0 0 1 10.005 15.208"/>
                <path d="M 12.491 11.286 A 0.286 0.286 0 0 1 12.777 11"/>
                <line x1="12.777" y1="13" x2="14.205" y2="13"/>
                <path d="M 12.777 13 A 0.286 0.286 0 0 1 12.491 12.714"/>
                <path d="M 14.491 12.714 A 0.286 0.286 0 0 1 14.205 13"/>
                <line x1="14.205" y1="11" x2="12.777" y2="11"/>
                <line x1="14.491" y1="12.714" x2="14.491" y2="11.286"/>
                <path d="M 14.205 11 A 0.286 0.286 0 0 1 14.491 11.286"/>
                <line x1="12.491" y1="11.286" x2="12.491" y2="12.714"/>
                <path d="M 14.491 15.208 A 0.286 0.286 0 0 1 14.205 15.494"/>
                <path d="M 0 6.286 A 0.286 0.286 0 0 1 0.286 6"/>
                <path d="M 7.504 13.78 A 0.286 0.286 0 0 1 7.79 13.494"/>
                <path d="M 10.005 6.286 A 0.286 0.286 0 0 1 10.291 6"/>
                <path d="M 22.214 6 A 0.286 0.286 0 0 1 22.5 6.286"/>
                <text x="29.005" y="7.261" text-anchor="middle" style="stroke-width: 0.14">K</text>
                <path d="M 32.205 11 A 0.286 0.286 0 0 1 32.491 11.286"/>
                <line x1="4.5" y1="7.714" x2="4.5" y2="6.286"/>
                <path d="M 23 6.286 A 0.286 0.286 0 0 1 23.286 6"/>
                <line x1="23.286" y1="8" x2="24.714" y2="8"/>
                <path d="M 23.286 8 A 0.286 0.286 0 0 1 23 7.714"/>
                <path d="M 25 7.714 A 0.286 0.286 0 0 1 24.714 8"/>
                <line x1="24.714" y1="6" x2="23.286" y2="6"/>
                <line x1="25" y1="7.714" x2="25" y2="6.286"/>
                <path d="M 24.714 6 A 0.286 0.286 0 0 1 25 6.286"/>
                <line x1="23" y1="6.286" x2="23" y2="7.714"/>
                <path d="M 10.005 11.286 A 0.286 0.286 0 0 1 10.291 11"/>
                <line x1="30.005" y1="7.714" x2="30.005" y2="6.286"/>
                <line x1="24.714" y1="8.509" x2="23.286" y2="8.509"/>
                <line x1="2.5" y1="6.286" x2="2.5" y2="7.714"/>
                <line x1="30.005" y1="12.714" x2="30.005" y2="11.286"/>
                <path d="M 23.286 13 A 0.286 0.286 0 0 1 23 12.714"/>
                <path d="M 28.005 8.795 A 0.286 0.286 0 0 1 28.291 8.509"/>
                <line x1="28.291" y1="10.509" x2="29.719" y2="10.509"/>
                <path d="M 28.291 10.509 A 0.286 0.286 0 0 1 28.005 10.223"/>
                <path d="M 30.005 10.223 A 0.286 0.286 0 0 1 29.719 10.509"/>
                <line x1="29.719" y1="8.509" x2="28.291" y2="8.509"/>
                <line x1="30.005" y1="10.223" x2="30.005" y2="8.795"/>
                <path d="M 29.719 8.509 A 0.286 0.286 0 0 1 30.005 8.795"/>
                <line x1="28.005" y1="8.795" x2="28.005" y2="10.223"/>
                <path d="M 20.812 15.494 A 0.286 0.286 0 0 1 20.526 15.208"/>
                <path d="M 32.491 10.223 A 0.286 0.286 0 0 1 32.205 10.509"/>
                <line x1="7.79" y1="13" x2="9.218" y2="13"/>
                <line x1="18.025" y1="13.78" x2="18.025" y2="15.208"/>
                <line x1="0.286" y1="8" x2="1.714" y2="8"/>
                <path d="M 28.005 6.286 A 0.286 0.286 0 0 1 28.291 6"/>
                <path d="M 30.777 10.509 A 0.286 0.286 0 0 1 30.491 10.223"/>
                <line x1="30.777" y1="8" x2="32.205" y2="8"/>
                <path d="M 30.777 8 A 0.286 0.286 0 0 1 30.491 7.714"/>
                <path d="M 32.491 7.714 A 0.286 0.286 0 0 1 32.205 8"/>
                <line x1="32.205" y1="6" x2="30.777" y2="6"/>
                <path d="M 32.205 6 A 0.286 0.286 0 0 1 32.491 6.286"/>
                <line x1="30.491" y1="6.286" x2="30.491" y2="7.714"/>
                <text x="8.504" y="7.261" text-anchor="middle" style="stroke-width: 0.14">R</text>
                <line x1="27.504" y1="12.714" x2="27.504" y2="11.286"/>
                <path d="M 2 12.714 A 0.286 0.286 0 0 1 1.714 13"/>
                <path d="M 27.218 11 A 0.286 0.286 0 0 1 27.504 11.286"/>
                <line x1="18.286" y1="10.509" x2="19.714" y2="10.509"/>
                <path d="M 7.79 15.494 A 0.286 0.286 0 0 1 7.504 15.208"/>
                <path d="M 9.504 15.208 A 0.286 0.286 0 0 1 9.218 15.494"/>
                <line x1="9.218" y1="13.494" x2="7.79" y2="13.494"/>
                <line x1="9.504" y1="15.208" x2="9.504" y2="13.78"/>
                <path d="M 9.218 13.494 A 0.286 0.286 0 0 1 9.504 13.78"/>
                <line x1="7.504" y1="13.78" x2="7.504" y2="15.208"/>
                <text x="6" y="9.77" text-anchor="middle" style="stroke-width: 0.14">S</text>
                <path d="M 12.491 6.286 A 0.286 0.286 0 0 1 12.777 6"/>
                <line x1="12.777" y1="8" x2="14.205" y2="8"/>
                <path d="M 12.777 8 A 0.286 0.286 0 0 1 12.491 7.714"/>
                <path d="M 14.491 7.714 A 0.286 0.286 0 0 1 14.205 8"/>
                <line x1="14.205" y1="6" x2="12.777" y2="6"/>
                <line x1="14.491" y1="7.714" x2="14.491" y2="6.286"/>
                <path d="M 14.205 6 A 0.286 0.286 0 0 1 14.491 6.286"/>
                <line x1="12.491" y1="6.286" x2="12.491" y2="7.714"/>
                <path d="M 28.291 8 A 0.286 0.286 0 0 1 28.005 7.714"/>
                <path d="M 11.719 13.494 A 0.286 0.286 0 0 1 12.005 13.78"/>
                <line x1="11.719" y1="11" x2="10.291" y2="11"/>
                <path d="M 6.714 8.509 A 0.286 0.286 0 0 1 7 8.795"/>
                <path d="M 7 10.223 A 0.286 0.286 0 0 1 6.714 10.509"/>
                <path d="M 12.005 12.714 A 0.286 0.286 0 0 1 11.719 13"/>
                <path d="M 23 11.286 A 0.286 0.286 0 0 1 23.286 11"/>
                <text x="1" y="12.261" text-anchor="middle" style="stroke-width: 0.14">SHF</text>
                <path d="M 7.504 8.795 A 0.286 0.286 0 0 1 7.79 8.509"/>
                <line x1="7.79" y1="10.509" x2="9.218" y2="10.509"/>
                <path d="M 7.79 10.509 A 0.286 0.286 0 0 1 7.504 10.223"/>
                <path d="M 9.504 10.223 A 0.286 0.286 0 0 1 9.218 10.509"/>
                <line x1="9.218" y1="8.509" x2="7.79" y2="8.509"/>
                <line x1="9.504" y1="10.223" x2="9.504" y2="8.795"/>
                <line x1="7.504" y1="8.795" x2="7.504" y2="10.223"/>
                <line x1="7.504" y1="6.286" x2="7.504" y2="7.714"/>
                <path d="M 0.286 8 A 0.286 0.286 0 0 1 0 7.714"/>
                <path d="M 20.526 13.78 A 0.286 0.286 0 0 1 20.812 13.494"/>
                <path d="M 22.526 15.208 A 0.286 0.286 0 0 1 22.24 15.494"/>
                <line x1="22.24" y1="13.494" x2="20.812" y2="13.494"/>
                <line x1="22.526" y1="15.208" x2="22.526" y2="13.78"/>
                <path d="M 22.24 13.494 A 0.286 0.286 0 0 1 22.526 13.78"/>
                <line x1="20.526" y1="13.78" x2="20.526" y2="15.208"/>
                <path d="M 4.5 12.714 A 0.286 0.286 0 0 1 4.214 13"/>
                <line x1="10.291" y1="8" x2="11.719" y2="8"/>
                <text x="11.005" y="14.755" text-anchor="middle" style="stroke-width: 0.14">K</text>
                <line x1="27.218" y1="6" x2="25.79" y2="6"/>
                <path d="M 18.286 8 A 0.286 0.286 0 0 1 18 7.714"/>
                <line x1="27.218" y1="8.509" x2="25.79" y2="8.509"/>
                <line x1="18" y1="11.286" x2="18" y2="12.714"/>
                <line x1="32.205" y1="11" x2="30.777" y2="11"/>
                <text x="3.5" y="7.261" text-anchor="middle" style="stroke-width: 0.14">Q</text>
                <line x1="29.719" y1="6" x2="28.291" y2="6"/>
                <line x1="28.291" y1="8" x2="29.719" y2="8"/>
                <line x1="5.286" y1="8" x2="6.714" y2="8"/>
                <path d="M 7 7.714 A 0.286 0.286 0 0 1 6.714 8"/>
                <line x1="7" y1="7.714" x2="7" y2="6.286"/>
                <path d="M 6.714 6 A 0.286 0.286 0 0 1 7 6.286"/>
                <line x1="6.714" y1="6" x2="5.286" y2="6"/>
                <path d="M 5 6.286 A 0.286 0.286 0 0 1 5.286 6"/>
                <line x1="5" y1="6.286" x2="5" y2="7.714"/>
                <path d="M 5.286 8 A 0.286 0.286 0 0 1 5 7.714"/>
                <line x1="27.218" y1="11" x2="25.79" y2="11"/>
                <line x1="10.291" y1="10.509" x2="11.719" y2="10.509"/>
                <path d="M 27.504 12.714 A 0.286 0.286 0 0 1 27.218 13"/>
                <line x1="24.714" y1="11" x2="23.286" y2="11"/>
                <path d="M 2.5 6.286 A 0.286 0.286 0 0 1 2.786 6"/>
                <line x1="2" y1="12.714" x2="2" y2="11.286"/>
                <line x1="23.286" y1="13" x2="24.714" y2="13"/>
                <path d="M 25 12.714 A 0.286 0.286 0 0 1 24.714 13"/>
                <line x1="25" y1="12.714" x2="25" y2="11.286"/>
                <path d="M 24.714 11 A 0.286 0.286 0 0 1 25 11.286"/>
                <line x1="23" y1="11.286" x2="23" y2="12.714"/>
                <path d="M 10.005 8.795 A 0.286 0.286 0 0 1 10.291 8.509"/>
                <path d="M 5 11.286 A 0.286 0.286 0 0 1 5.286 11"/>
                <line x1="12.491" y1="13.78" x2="12.491" y2="15.208"/>
                <line x1="18.286" y1="13" x2="19.714" y2="13"/>
                <path d="M 25.504 6.286 A 0.286 0.286 0 0 1 25.79 6"/>
                <path d="M 25.504 11.286 A 0.286 0.286 0 0 1 25.79 11"/>
                <line x1="25.79" y1="13" x2="27.218" y2="13"/>
                <path d="M 25.79 13 A 0.286 0.286 0 0 1 25.504 12.714"/>
                <line x1="25.504" y1="11.286" x2="25.504" y2="12.714"/>
                <text x="29.005" y="12.261" text-anchor="middle" style="stroke-width: 0.14">K</text>
                <line x1="20" y1="10.223" x2="20" y2="8.795"/>
                <line x1="20.025" y1="15.208" x2="20.025" y2="13.78"/>
                <path d="M 0 11.286 A 0.286 0.286 0 0 1 0.286 11"/>
                <path d="M 2.5 11.286 A 0.286 0.286 0 0 1 2.786 11"/>
                <line x1="2.786" y1="13" x2="4.214" y2="13"/>
                <path d="M 2.786 13 A 0.286 0.286 0 0 1 2.5 12.714"/>
                <line x1="4.214" y1="11" x2="2.786" y2="11"/>
                <line x1="4.5" y1="12.714" x2="4.5" y2="11.286"/>
                <path d="M 4.214 11 A 0.286 0.286 0 0 1 4.5 11.286"/>
                <line x1="2.5" y1="11.286" x2="2.5" y2="12.714"/>
                <text x="21.526" y="14.755" text-anchor="middle" style="stroke-width: 0.14">K</text>
                <text x="1" y="7.261" text-anchor="middle" style="stroke-width: 0.14">TAB</text>
                <path d="M 2 10.223 A 0.286 0.286 0 0 1 1.714 10.509"/>
                <line x1="4.214" y1="6" x2="2.786" y2="6"/>
                <line x1="27.504" y1="10.223" x2="27.504" y2="8.795"/>
                <line x1="25.504" y1="8.795" x2="25.504" y2="10.223"/>
                <text x="19" y="9.77" text-anchor="middle" style="stroke-width: 0.14">K</text>
                <path d="M 7.504 6.286 A 0.286 0.286 0 0 1 7.79 6"/>
                <line x1="7.79" y1="8" x2="9.218" y2="8"/>
                <path d="M 7.79 8 A 0.286 0.286 0 0 1 7.504 7.714"/>
                <path d="M 9.504 7.714 A 0.286 0.286 0 0 1 9.218 8"/>
                <line x1="9.218" y1="6" x2="7.79" y2="6"/>
                <path d="M 9.218 6 A 0.286 0.286 0 0 1 9.504 6.286"/>
                <line x1="22.214" y1="11" x2="20.786" y2="11"/>
                <path d="M 14.205 13.494 A 0.286 0.286 0 0 1 14.491 13.78"/>
                <text x="13.491" y="14.755" text-anchor="middle" style="stroke-width: 0.14">K</text>
                <line x1="19.739" y1="13.494" x2="18.311" y2="13.494"/>
                <path d="M 28.005 11.286 A 0.286 0.286 0 0 1 28.291 11"/>
                <path d="M 22.5 12.714 A 0.286 0.286 0 0 1 22.214 13"/>
                <path d="M 0 8.795 A 0.286 0.286 0 0 1 0.286 8.509"/>
                <text x="13.491" y="12.261" text-anchor="middle" style="stroke-width: 0.14">C</text>
                <line x1="0.286" y1="13" x2="1.714" y2="13"/>
                <path d="M 11.719 8.509 A 0.286 0.286 0 0 1 12.005 8.795"/>
                <line x1="20.786" y1="13" x2="22.214" y2="13"/>
                <line x1="5" y1="11.286" x2="5" y2="12.714"/>
                <path d="M 30.005 7.714 A 0.286 0.286 0 0 1 29.719 8"/>
                <path d="M 29.719 6 A 0.286 0.286 0 0 1 30.005 6.286"/>
                <line x1="28.005" y1="6.286" x2="28.005" y2="7.714"/>
                <path d="M 19.739 13.494 A 0.286 0.286 0 0 1 20.025 13.78"/>
                <path d="M 2.786 8 A 0.286 0.286 0 0 1 2.5 7.714"/>
                <line x1="7" y1="10.223" x2="7" y2="8.795"/>
                <path d="M 10.005 13.78 A 0.286 0.286 0 0 1 10.291 13.494"/>
                <path d="M 12.005 15.208 A 0.286 0.286 0 0 1 11.719 15.494"/>
                <line x1="11.719" y1="13.494" x2="10.291" y2="13.494"/>
                <line x1="12.005" y1="15.208" x2="12.005" y2="13.78"/>
                <line x1="10.005" y1="13.78" x2="10.005" y2="15.208"/>
                <text x="31.491" y="12.261" text-anchor="middle" style="stroke-width: 0.14">K</text>
                <line x1="22.214" y1="6" x2="20.786" y2="6"/>
                <path d="M 10.291 10.509 A 0.286 0.286 0 0 1 10.005 10.223"/>
                <path d="M 30.491 11.286 A 0.286 0.286 0 0 1 30.777 11"/>
                <text x="11.005" y="12.261" text-anchor="middle" style="stroke-width: 0.14">V</text>
                <path d="M 23.298 15.494 A 0.286 0.286 0 0 1 23.012 15.208"/>
                <path d="M 4.214 6 A 0.286 0.286 0 0 1 4.5 6.286"/>
                <line x1="25.79" y1="8" x2="27.218" y2="8"/>
                <path d="M 25.79 8 A 0.286 0.286 0 0 1 25.504 7.714"/>
                <path d="M 27.504 7.714 A 0.286 0.286 0 0 1 27.218 8"/>
                <line x1="27.504" y1="7.714" x2="27.504" y2="6.286"/>
                <path d="M 27.218 6 A 0.286 0.286 0 0 1 27.504 6.286"/>
                <line x1="25.504" y1="6.286" x2="25.504" y2="7.714"/>
                <line x1="30.491" y1="11.286" x2="30.491" y2="12.714"/>
                <text x="19" y="12.261" text-anchor="middle" style="stroke-width: 0.14">K</text>
                <line x1="28.291" y1="13" x2="29.719" y2="13"/>
                <path d="M 30.005 12.714 A 0.286 0.286 0 0 1 29.719 13"/>
                <path d="M 9.218 11 A 0.286 0.286 0 0 1 9.504 11.286"/>
                <text x="24.012" y="14.755" text-anchor="middle" style="stroke-width: 0.14">K</text>
                <path d="M 30.777 13 A 0.286 0.286 0 0 1 30.491 12.714"/>
                <line x1="18" y1="8.795" x2="18" y2="10.223"/>
                <path d="M 2.786 10.509 A 0.286 0.286 0 0 1 2.5 10.223"/>
                <path d="M 20.5 6.286 A 0.286 0.286 0 0 1 20.786 6"/>
                <path d="M 30.491 8.795 A 0.286 0.286 0 0 1 30.777 8.509"/>
                <line x1="32.205" y1="8.509" x2="30.777" y2="8.509"/>
                <path d="M 32.205 8.509 A 0.286 0.286 0 0 1 32.491 8.795"/>
                <line x1="30.491" y1="8.795" x2="30.491" y2="10.223"/>
                <line x1="5" y1="8.795" x2="5" y2="10.223"/>
                <path d="M 23.012 13.78 A 0.286 0.286 0 0 1 23.298 13.494"/>
                <path d="M 25.012 15.208 A 0.286 0.286 0 0 1 24.726 15.494"/>
                <line x1="24.726" y1="13.494" x2="23.298" y2="13.494"/>
                <line x1="25.012" y1="15.208" x2="25.012" y2="13.78"/>
                <path d="M 24.726 13.494 A 0.286 0.286 0 0 1 25.012 13.78"/>
                <line x1="23.012" y1="13.78" x2="23.012" y2="15.208"/>
                <path d="M 0.286 13 A 0.286 0.286 0 0 1 0 12.714"/>
                <line x1="20" y1="7.714" x2="20" y2="6.286"/>
                <path d="M 28.291 13 A 0.286 0.286 0 0 1 28.005 12.714"/>
                <line x1="29.719" y1="11" x2="28.291" y2="11"/>
                <path d="M 29.719 11 A 0.286 0.286 0 0 1 30.005 11.286"/>
                <line x1="28.005" y1="11.286" x2="28.005" y2="12.714"/>
                <line x1="10.291" y1="13" x2="11.719" y2="13"/>
                <path d="M 10.291 13 A 0.286 0.286 0 0 1 10.005 12.714"/>
                <line x1="12.005" y1="12.714" x2="12.005" y2="11.286"/>
                <path d="M 11.719 11 A 0.286 0.286 0 0 1 12.005 11.286"/>
                <line x1="10.005" y1="11.286" x2="10.005" y2="12.714"/>
                <path d="M 2.5 8.795 A 0.286 0.286 0 0 1 2.786 8.509"/>
                <line x1="7.504" y1="11.286" x2="7.504" y2="12.714"/>
                <path d="M 7.504 11.286 A 0.286 0.286 0 0 1 7.79 11"/>
                <path d="M 7.79 13 A 0.286 0.286 0 0 1 7.504 12.714"/>
                <path d="M 9.504 12.714 A 0.286 0.286 0 0 1 9.218 13"/>
                <line x1="9.218" y1="11" x2="7.79" y2="11"/>
                <line x1="9.504" y1="12.714" x2="9.504" y2="11.286"/>
                <text x="13.491" y="7.261" text-anchor="middle" style="stroke-width: 0.14">B</text>
                <line x1="19.714" y1="11" x2="18.286" y2="11"/>
                <line x1="2.786" y1="8" x2="4.214" y2="8"/>
                <path d="M 4.5 7.714 A 0.286 0.286 0 0 1 4.214 8"/>
                <line x1="30.777" y1="13" x2="32.205" y2="13"/>
                <path d="M 25.79 10.509 A 0.286 0.286 0 0 1 25.504 10.223"/>
                <line x1="25" y1="10.223" x2="25" y2="8.795"/>
                <path d="M 18 6.286 A 0.286 0.286 0 0 1 18.286 6"/>
                <text x="29.005" y="9.77" text-anchor="middle" style="stroke-width: 0.14">K</text>
                <line x1="6.714" y1="11" x2="5.286" y2="11"/>
                <line x1="22.5" y1="7.714" x2="22.5" y2="6.286"/>
                <text x="31.491" y="9.77" text-anchor="middle" style="stroke-width: 0.14">K</text>
                <line x1="22.5" y1="12.714" x2="22.5" y2="11.286"/>
                <path d="M 12.005 7.714 A 0.286 0.286 0 0 1 11.719 8"/>
                <line x1="1.714" y1="11" x2="0.286" y2="11"/>
                <path d="M 1.714 11 A 0.286 0.286 0 0 1 2 11.286"/>
                <text x="19" y="7.261" text-anchor="middle" style="stroke-width: 0.14">K</text>
                <line x1="23.286" y1="10.509" x2="24.714" y2="10.509"/>
                <path d="M 20.786 13 A 0.286 0.286 0 0 1 20.5 12.714"/>
                <g style="stroke-width: 0.14">
                    <text x="15" y="2.761" text-anchor="middle">rather brown together they small such</text>
                    <text x="15" y="3.761" text-anchor="middle">show left know around line can or manyu</text>
                    <text x="15" y="4.761" text-anchor="middle">often part where such great take</text>
                </g>
                <path d="M 18.025 13.78 A 0.286 0.286 0 0 1 18.311 13.494"/>
                <path d="M 18.311 15.494 A 0.286 0.286 0 0 1 18.025 15.208"/>
                <path d="M 20.025 15.208 A 0.286 0.286 0 0 1 19.739 15.494"/>
                <path d="M 4.5 10.223 A 0.286 0.286 0 0 1 4.214 10.509"/>
                <line x1="0.286" y1="10.509" x2="1.714" y2="10.509"/>
                <line x1="2.786" y1="10.509" x2="4.214" y2="10.509"/>
                <path d="M 12.491 13.78 A 0.286 0.286 0 0 1 12.777 13.494"/>
                <path d="M 12.777 15.494 A 0.286 0.286 0 0 1 12.491 15.208"/>
                <line x1="14.205" y1="13.494" x2="12.777" y2="13.494"/>
                <line x1="14.491" y1="15.208" x2="14.491" y2="13.78"/>
                <text x="0.239" y="0.261" style="stroke-width: 0.14">49 WPM</text>
                <path d="M 10.291 8 A 0.286 0.286 0 0 1 10.005 7.714"/>
                <line x1="11.719" y1="6" x2="10.291" y2="6"/>
                <line x1="12.005" y1="7.714" x2="12.005" y2="6.286"/>
                <path d="M 11.719 6 A 0.286 0.286 0 0 1 12.005 6.286"/>
                <line x1="10.005" y1="6.286" x2="10.005" y2="7.714"/>
                <path d="M 2 7.714 A 0.286 0.286 0 0 1 1.714 8"/>
                <path d="M 20.786 8 A 0.286 0.286 0 0 1 20.5 7.714"/>
                <text x="26.504" y="12.261" text-anchor="middle" style="stroke-width: 0.14">K</text>
                <text x="19.025" y="14.755" text-anchor="middle" style="stroke-width: 0.14">K</text>
                <text x="21.5" y="9.77" text-anchor="middle" style="stroke-width: 0.14">K</text>
                <path d="M 20 12.714 A 0.286 0.286 0 0 1 19.714 13"/>
                <line x1="2.5" y1="8.795" x2="2.5" y2="10.223"/>
                <path d="M 12.005 10.223 A 0.286 0.286 0 0 1 11.719 10.509"/>
                <line x1="19.714" y1="8.509" x2="18.286" y2="8.509"/>
                <path d="M 18 8.795 A 0.286 0.286 0 0 1 18.286 8.509"/>
                <line x1="20.5" y1="11.286" x2="20.5" y2="12.714"/>
                <text x="11.005" y="9.77" text-anchor="middle" style="stroke-width: 0.14">T</text>
                <path d="M 0.286 10.509 A 0.286 0.286 0 0 1 0 10.223"/>
                <path d="M 32.491 12.714 A 0.286 0.286 0 0 1 32.205 13"/>
                <path d="M 24.714 8.509 A 0.286 0.286 0 0 1 25 8.795"/>
                <text x="13.491" y="9.77" text-anchor="middle" style="stroke-width: 0.14">G</text>
                <line x1="1.714" y1="6" x2="0.286" y2="6"/>
                <text x="26.504" y="7.261" text-anchor="middle" style="stroke-width: 0.14">K</text>
                <text x="11.005" y="7.261" text-anchor="middle" style="stroke-width: 0.14">W</text>
                <line x1="5.286" y1="13" x2="6.714" y2="13"/>
                <text x="3.239" y="0.261" style="stroke-width: 0.14">  96%     103/104</text>
                <text x="24" y="7.261" text-anchor="middle" style="stroke-width: 0.14">K</text>
                <path d="M 20 7.714 A 0.286 0.286 0 0 1 19.714 8"/>
                <path d="M 27.504 10.223 A 0.286 0.286 0 0 1 27.218 10.509"/>
                <text x="21.5" y="7.261" text-anchor="middle" style="stroke-width: 0.14">K</text>
                <path d="M 20.5 11.286 A 0.286 0.286 0 0 1 20.786 11"/>
                <line x1="20.786" y1="8" x2="22.214" y2="8"/>
                <path d="M 25.504 8.795 A 0.286 0.286 0 0 1 25.79 8.509"/>
                <line x1="25.79" y1="10.509" x2="27.218" y2="10.509"/>
                <path d="M 27.218 8.509 A 0.286 0.286 0 0 1 27.504 8.795"/>
                <path d="M 18.286 10.509 A 0.286 0.286 0 0 1 18 10.223"/>
                <line x1="2" y1="7.714" x2="2" y2="6.286"/>
                <path d="M 1.714 6 A 0.286 0.286 0 0 1 2 6.286"/>
                <line x1="18.286" y1="8" x2="19.714" y2="8"/>
                <line x1="19.714" y1="6" x2="18.286" y2="6"/>
                <path d="M 19.714 6 A 0.286 0.286 0 0 1 20 6.286"/>
                <line x1="18" y1="6.286" x2="18" y2="7.714"/>
                <line x1="11.719" y1="8.509" x2="10.291" y2="8.509"/>
                <line x1="12.005" y1="10.223" x2="12.005" y2="8.795"/>
                <line x1="10.005" y1="8.795" x2="10.005" y2="10.223"/>
                <text x="26.504" y="9.77" text-anchor="middle" style="stroke-width: 0.14">K</text>
                <line x1="1.714" y1="8.509" x2="0.286" y2="8.509"/>
                <line x1="4.5" y1="10.223" x2="4.5" y2="8.795"/>
                <path d="M 20 10.223 A 0.286 0.286 0 0 1 19.714 10.509"/>
                <line x1="20" y1="12.714" x2="20" y2="11.286"/>
                <text x="3.5" y="9.77" text-anchor="middle" style="stroke-width: 0.14">A</text>
                <text x="3.5" y="12.261" text-anchor="middle" style="stroke-width: 0.14">Z</text>
                <text x="8.504" y="12.261" text-anchor="middle" style="stroke-width: 0.14">M</text>
                <path d="M 6.714 11 A 0.286 0.286 0 0 1 7 11.286"/>
                <path d="M 19.714 8.509 A 0.286 0.286 0 0 1 20 8.795"/>
                <path d="M 5.286 13 A 0.286 0.286 0 0 1 5 12.714"/>
                <path d="M 5.286 10.509 A 0.286 0.286 0 0 1 5 10.223"/>
                <line x1="2" y1="10.223" x2="2" y2="8.795"/>
                <path d="M 7 12.714 A 0.286 0.286 0 0 1 6.714 13"/>
                <line x1="7" y1="12.714" x2="7" y2="11.286"/>
                <path d="M 22.214 11 A 0.286 0.286 0 0 1 22.5 11.286"/>
                <text x="24" y="9.77" text-anchor="middle" style="stroke-width: 0.14">K</text>
                <path d="M 18.286 13 A 0.286 0.286 0 0 1 18 12.714"/>
                <path d="M 4.214 8.509 A 0.286 0.286 0 0 1 4.5 8.795"/>
                <path d="M 19.714 11 A 0.286 0.286 0 0 1 20 11.286"/>
                <line x1="23" y1="8.795" x2="23" y2="10.223"/>
                <path d="M 23.286 10.509 A 0.286 0.286 0 0 1 23 10.223"/>
                <line x1="20.5" y1="6.286" x2="20.5" y2="7.714"/>
                <text x="21.5" y="12.261" text-anchor="middle" style="stroke-width: 0.14">K</text>
                <line x1="4.214" y1="8.509" x2="2.786" y2="8.509"/>
                <text x="8.504" y="14.755" text-anchor="middle" style="stroke-width: 0.14">GUI</text>
                <text x="24" y="12.261" text-anchor="middle" style="stroke-width: 0.14">K</text>
                <line x1="5.286" y1="10.509" x2="6.714" y2="10.509"/>
                <text x="6" y="7.261" text-anchor="middle" style="stroke-width: 0.14">D</text>
                <path d="M 22.5 7.714 A 0.286 0.286 0 0 1 22.214 8"/>
                <path d="M 5 8.795 A 0.286 0.286 0 0 1 5.286 8.509"/>
                <line x1="6.714" y1="8.509" x2="5.286" y2="8.509"/>
                <text x="31.491" y="7.261" text-anchor="middle" style="stroke-width: 0.14">K</text>
                <path d="M 25 10.223 A 0.286 0.286 0 0 1 24.714 10.509"/>
                <text x="1" y="9.77" text-anchor="middle" style="stroke-width: 0.14">BSP</text>
                <text x="6" y="12.261" text-anchor="middle" style="stroke-width: 0.14">X</text>
                <text x="8.504" y="9.77" text-anchor="middle" style="stroke-width: 0.14">H</text>
            </g>
        </mask>
    </defs>
    <rect width="100%" height="100%" fill="#e4ecf9"/>
    <g transform="scale(30) translate(2 2.5)">
        <g class="fill" opacity="0.15">
            <path d="M 0 6.286 A 0.286 0.286 0 0 1 0.286 6 L 1.714 6 A 0.286 0.286 0 0 1 2 6.286 L 2 7.714 A 0.286 0.286 0 0 1 1.714 8 L 0.286 8 A 0.286 0.286 0 0 1 0 7.714 L 0 6.286 Z"/>
        </g>
        <g mask="url(#foreground-plane-keep-out-mask)">
            <g class="fill">
                <path d="M 5.286 8 L 6.714 8 A 0.286 0.286 0 0 0 7 7.714 L 7 6.286 A 0.286 0.286 0 0 0 6.714 6 L 5.286 6 A 0.286 0.286 0 0 0 5 6.286 L 5 7.714 A 0.286 0.286 0 0 0 5.286 8 Z"/>
            </g>
        </g>
        <g class="fill">
            <text x="29.005" y="7.261" text-anchor="middle">K</text>
            <text x="8.504" y="7.261" text-anchor="middle">R</text>
            <text x="6" y="9.77" text-anchor="middle">S</text>
            <text x="1" y="12.261" text-anchor="middle">SHF</text>
            <text x="11.005" y="14.755" text-anchor="middle">K</text>
            <text x="3.5" y="7.261" text-anchor="middle">Q</text>
            <text x="29.005" y="12.261" text-anchor="middle">K</text>
            <text x="21.526" y="14.755" text-anchor="middle">K</text>
            <text x="1" y="7.261" text-anchor="middle">TAB</text>
            <text x="19" y="9.77" text-anchor="middle">K</text>
            <text x="13.491" y="14.755" text-anchor="middle">K</text>
            <text x="13.491" y="12.261" text-anchor="middle">C</text>
            <text x="31.491" y="12.261" text-anchor="middle">K</text>
            <text x="11.005" y="12.261" text-anchor="middle">V</text>
            <text x="19" y="12.261" text-anchor="middle">K</text>
            <text x="24.012" y="14.755" text-anchor="middle">K</text>
            <text x="13.491" y="7.261" text-anchor="middle">B</text>
            <text x="29.005" y="9.77" text-anchor="middle">K</text>
            <text x="31.491" y="9.77" text-anchor="middle">K</text>
            <text x="19" y="7.261" text-anchor="middle">K</text>
            <g>
                <text x="15" y="2.761" text-anchor="middle">rather brown together they small such</text>
                <text x="15" y="3.761" text-anchor="middle">show left know around line can or manyu</text>
                <text x="15" y="4.761" text-anchor="middle">often part where such great take</text>
            </g>
            <text x="26.504" y="12.261" text-anchor="middle">K</text>
            <text x="19.025" y="14.755" text-anchor="middle">K</text>
            <text x="21.5" y="9.77" text-anchor="middle">K</text>
            <text x="11.005" y="9.77" text-anchor="middle">T</text>
            <text x="13.491" y="9.77" text-anchor="middle">G</text>
            <text x="26.504" y="7.261" text-anchor="middle">K</text>
            <text x="11.005" y="7.261" text-anchor="middle">W</text>
            <text x="3.239" y="0.261">  96%     103/104</text>
            <text x="24" y="7.261" text-anchor="middle">K</text>
            <text x="21.5" y="7.261" text-anchor="middle">K</text>
            <text x="26.504" y="9.77" text-anchor="middle">K</text>
            <text x="3.5" y="9.77" text-anchor="middle">A</text>
            <text x="3.5" y="12.261" text-anchor="middle">Z</text>
            <text x="8.504" y="12.261" text-anchor="middle">M</text>
            <text x="24" y="9.77" text-anchor="middle">K</text>
            <text x="21.5" y="12.261" text-anchor="middle">K</text>
            <text x="8.504" y="14.755" text-anchor="middle">GUI</text>
            <text x="24" y="12.261" text-anchor="middle">K</text>
            <text x="6" y="7.261" text-anchor="middle">D</text>
            <text x="31.491" y="7.261" text-anchor="middle">K</text>
            <text x="1" y="9.77" text-anchor="middle">BSP</text>
            <text x="6" y="12.261" text-anchor="middle">X</text>
            <text x="8.504" y="9.77" text-anchor="middle">H</text>
        </g>
        <g class="highlight-fill">
            <text x="0.239" y="0.261">49 WPM</text>
        </g>
        <g class="stroke">
            <line x1="30.777" y1="10.509" x2="32.205" y2="10.509"/>
            <path d="M 1.714 8.509 A 0.286 0.286 0 0 1 2 8.795"/>
            <path d="M 18 11.286 A 0.286 0.286 0 0 1 18.286 11"/>
            <path d="M 20.5 8.795 A 0.286 0.286 0 0 1 20.786 8.509"/>
            <line x1="20.786" y1="10.509" x2="22.214" y2="10.509"/>
            <path d="M 20.786 10.509 A 0.286 0.286 0 0 1 20.5 10.223"/>
            <path d="M 22.5 10.223 A 0.286 0.286 0 0 1 22.214 10.509"/>
            <line x1="22.214" y1="8.509" x2="20.786" y2="8.509"/>
            <line x1="22.5" y1="10.223" x2="22.5" y2="8.795"/>
            <path d="M 22.214 8.509 A 0.286 0.286 0 0 1 22.5 8.795"/>
            <line x1="20.5" y1="8.795" x2="20.5" y2="10.223"/>
            <path d="M 9.218 8.509 A 0.286 0.286 0 0 1 9.504 8.795"/>
            <line x1="9.504" y1="7.714" x2="9.504" y2="6.286"/>
            <path d="M 23 8.795 A 0.286 0.286 0 0 1 23.286 8.509"/>
            <path d="M 12.491 8.795 A 0.286 0.286 0 0 1 12.777 8.509"/>
            <line x1="12.777" y1="10.509" x2="14.205" y2="10.509"/>
            <path d="M 12.777 10.509 A 0.286 0.286 0 0 1 12.491 10.223"/>
            <path d="M 14.491 10.223 A 0.286 0.286 0 0 1 14.205 10.509"/>
            <line x1="14.205" y1="8.509" x2="12.777" y2="8.509"/>
            <line x1="14.491" y1="10.223" x2="14.491" y2="8.795"/>
            <path d="M 14.205 8.509 A 0.286 0.286 0 0 1 14.491 8.795"/>
            <line x1="12.491" y1="8.795" x2="12.491" y2="10.223"/>
            <path d="M 30.491 6.286 A 0.286 0.286 0 0 1 30.777 6"/>
            <path d="M 10.291 15.494 A 0.286 0.286 0 0 1 10.005 15.208"/>
            <path d="M 12.491 11.286 A 0.286 0.286 0 0 1 12.777 11"/>
            <line x1="12.777" y1="13" x2="14.205" y2="13"/>
            <path d="M 12.777 13 A 0.286 0.286 0 0 1 12.491 12.714"/>
            <path d="M 14.491 12.714 A 0.286 0.286 0 0 1 14.205 13"/>
            <line x1="14.205" y1="11" x2="12.777" y2="11"/>
            <line x1="14.491" y1="12.714" x2="14.491" y2="11.286"/>
            <path d="M 14.205 11 A 0.286 0.286 0 0 1 14.491 11.286"/>
            <line x1="12.491" y1="11.286" x2="12.491" y2="12.714"/>
            <path d="M 14.491 15.208 A 0.286 0.286 0 0 1 14.205 15.494"/>
            <path d="M 0 6.286 A 0.286 0.286 0 0 1 0.286 6"/>
            <path d="M 7.504 13.78 A 0.286 0.286 0 0 1 7.79 13.494"/>
            <path d="M 10.005 6.286 A 0.286 0.286 0 0 1 10.291 6"/>
            <path d="M 22.214 6 A 0.286 0.286 0 0 1 22.5 6.286"/>
            <path d="M 32.205 11 A 0.286 0.286 0 0 1 32.491 11.286"/>
            <line x1="4.5" y1="7.714" x2="4.5" y2="6.286"/>
            <path d="M 23 6.286 A 0.286 0.286 0 0 1 23.286 6"/>
            <line x1="23.286" y1="8" x2="24.714" y2="8"/>
            <path d="M 23.286 8 A 0.286 0.286 0 0 1 23 7.714"/>
            <path d="M 25 7.714 A 0.286 0.286 0 0 1 24.714 8"/>
            <line x1="24.714" y1="6" x2="23.286" y2="6"/>
            <line x1="25" y1="7.714" x2="25" y2="6.286"/>
            <path d="M 24.714 6 A 0.286 0.286 0 0 1 25 6.286"/>
            <line x1="23" y1="6.286" x2="23" y2="7.714"/>
            <path d="M 10.005 11.286 A 0.286 0.286 0 0 1 10.291 11"/>
            <line x1="30.005" y1="7.714" x2="30.005" y2="6.286"/>
            <line x1="24.714" y1="8.509" x2="23.286" y2="8.509"/>
            <line x1="2.5" y1="6.286" x2="2.5" y2="7.714"/>
            <line x1="30.005" y1="12.714" x2="30.005" y2="11.286"/>
            <path d="M 23.286 13 A 0.286 0.286 0 0 1 23 12.714"/>
            <path d="M 28.005 8.795 A 0.286 0.286 0 0 1 28.291 8.509"/>
            <line x1="28.291" y1="10.509" x2="29.719" y2="10.509"/>
            <path d="M 28.291 10.509 A 0.286 0.286 0 0 1 28.005 10.223"/>
            <path d="M 30.005 10.223 A 0.286 0.286 0 0 1 29.719 10.509"/>
            <line x1="29.719" y1="8.509" x2="28.291" y2="8.509"/>
            <line x1="30.005" y1="10.223" x2="30.005" y2="8.795"/>
            <path d="M 29.719 8.509 A 0.286 0.286 0 0 1 30.005 8.795"/>
            <line x1="28.005" y1="8.795" x2="28.005" y2="10.223"/>
            <path d="M 20.812 15.494 A 0.286 0.286 0 0 1 20.526 15.208"/>
            <path d="M 32.491 10.223 A 0.286 0.286 0 0 1 32.205 10.509"/>
            <line x1="7.79" y1="13" x2="9.218" y2="13"/>
            <line x1="18.025" y1="13.78" x2="18.025" y2="15.208"/>
            <line x1="0.286" y1="8" x2="1.714" y2="8"/>
            <path d="M 28.005 6.286 A 0.286 0.286 0 0 1 28.291 6"/>
            <path d="M 30.777 10.509 A 0.286 0.286 0 0 1 30.491 10.223"/>
            <line x1="30.777" y1="8" x2="32.205" y2="8"/>
            <path d="M 30.777 8 A 0.286 0.286 0 0 1 30.491 7.714"/>
            <path d="M 32.491 7.714 A 0.286 0.286 0 0 1 32.205 8"/>
            <line x1="32.205" y1="6" x2="30.777" y2="6"/>
            <path d="M 32.205 6 A 0.286 0.286 0 0 1 32.491 6.286"/>
            <line x1="30.491" y1="6.286" x2="30.491" y2="7.714"/>
            <line x1="27.504" y1="12.714" x2="27.504" y2="11.286"/>
            <path d="M 2 12.714 A 0.286 0.286 0 0 1 1.714 13"/>
            <path d="M 27.218 11 A 0.286 0.286 0 0 1 27.504 11.286"/>
            <line x1="18.286" y1="10.509" x2="19.714" y2="10.509"/>
            <path d="M 7.79 15.494 A 0.286 0.286 0 0 1 7.504 15.208"/>
            <path d="M 9.504 15.208 A 0.286 0.286 0 0 1 9.218 15.494"/>
            <line x1="9.218" y1="13.494" x2="7.79" y2="13.494"/>
            <line x1="9.504" y1="15.208" x2="9.504" y2="13.78"/>
            <path d="M 9.218 13.494 A 0.286 0.286 0 0 1 9.504 13.78"/>
            <line x1="7.504" y1="13.78" x2="7.504" y2="15.208"/>
            <path d="M 12.491 6.286 A 0.286 0.286 0 0 1 12.777 6"/>
            <line x1="12.777" y1="8" x2="14.205" y2="8"/>
            <path d="M 12.777 8 A 0.286 0.286 0 0 1 12.491 7.714"/>
            <path d="M 14.491 7.714 A 0.286 0.286 0 0 1 14.205 8"/>
            <line x1="14.205" y1="6" x2="12.777" y2="6"/>
            <line x1="14.491" y1="7.714" x2="14.491" y2="6.286"/>
            <path d="M 14.205 6 A 0.286 0.286 0 0 1 14.491 6.286"/>
            <line x1="12.491" y1="6.286" x2="12.491" y2="7.714"/>
            <path d="M 28.291 8 A 0.286 0.286 0 0 1 28.005 7.714"/>
            <path d="M 11.719 13.494 A 0.286 0.286 0 0 1 12.005 13.78"/>
            <line x1="11.719" y1="11" x2="10.291" y2="11"/>
            <path d="M 6.714 8.509 A 0.286 0.286 0 0 1 7 8.795"/>
            <path d="M 7 10.223 A 0.286 0.286 0 0 1 6.714 10.509"/>
            <path d="M 12.005 12.714 A 0.286 0.286 0 0 1 11.719 13"/>
            <path d="M 23 11.286 A 0.286 0.286 0 0 1 23.286 11"/>
            <path d="M 7.504 8.795 A 0.286 0.286 0 0 1 7.79 8.509"/>
            <line x1="7.79" y1="10.509" x2="9.218" y2="10.509"/>
            <path d="M 7.79 10.509 A 0.286 0.286 0 0 1 7.504 10.223"/>
            <path d="M 9.504 10.223 A 0.286 0.286 0 0 1 9.218 10.509"/>
            <line x1="9.218" y1="8.509" x2="7.79" y2="8.509"/>
            <line x1="9.504" y1="10.223" x2="9.504" y2="8.795"/>
            <line x1="7.504" y1="8.795" x2="7.504" y2="10.223"/>
            <line x1="7.504" y1="6.286" x2="7.504" y2="7.714"/>
            <path d="M 0.286 8 A 0.286 0.286 0 0 1 0 7.714"/>
            <path d="M 20.526 13.78 A 0.286 0.286 0 0 1 20.812 13.494"/>
            <path d="M 22.526 15.208 A 0.286 0.286 0 0 1 22.24 15.494"/>
            <line x1="22.24" y1="13.494" x2="20.812" y2="13.494"/>
            <line x1="22.526" y1="15.208" x2="22.526" y2="13.78"/>
            <path d="M 22.24 13.494 A 0.286 0.286 0 0 1 22.526 13.78"/>
            <line x1="20.526" y1="13.78" x2="20.526" y2="15.208"/>
            <path d="M 4.5 12.714 A 0.286 0.286 0 0 1 4.214 13"/>
            <line x1="10.291" y1="8" x2="11.719" y2="8"/>
            <line x1="27.218" y1="6" x2="25.79" y2="6"/>
            <path d="M 18.286 8 A 0.286 0.286 0 0 1 18 7.714"/>
            <line x1="27.218" y1="8.509" x2="25.79" y2="8.509"/>
            <line x1="18" y1="11.286" x2="18" y2="12.714"/>
            <line x1="32.205" y1="11" x2="30.777" y2="11"/>
            <line x1="29.719" y1="6" x2="28.291" y2="6"/>
            <line x1="28.291" y1="8" x2="29.719" y2="8"/>
            <line x1="5.286" y1="8" x2="6.714" y2="8"/>
            <path d="M 7 7.714 A 0.286 0.286 0 0 1 6.714 8"/>
            <line x1="7" y1="7.714" x2="7" y2="6.286"/>
            <path d="M 6.714 6 A 0.286 0.286 0 0 1 7 6.286"/>
            <line x1="6.714" y1="6" x2="5.286" y2="6"/>
            <path d="M 5 6.286 A 0.286 0.286 0 0 1 5.286 6"/>
            <line x1="5" y1="6.286" x2="5" y2="7.714"/>
            <path d="M 5.286 8 A 0.286 0.286 0 0 1 5 7.714"/>
            <line x1="27.218" y1="11" x2="25.79" y2="11"/>
            <line x1="10.291" y1="10.509" x2="11.719" y2="10.509"/>
            <path d="M 27.504 12.714 A 0.286 0.286 0 0 1 27.218 13"/>
            <line x1="24.714" y1="11" x2="23.286" y2="11"/>
            <path d="M 2.5 6.286 A 0.286 0.286 0 0 1 2.786 6"/>
            <line x1="2" y1="12.714" x2="2" y2="11.286"/>
            <line x1="23.286" y1="13" x2="24.714" y2="13"/>
            <path d="M 25 12.714 A 0.286 0.286 0 0 1 24.714 13"/>
            <line x1="25" y1="12.714" x2="25" y2="11.286"/>
            <path d="M 24.714 11 A 0.286 0.286 0 0 1 25 11.286"/>
            <line x1="23" y1="11.286" x2="23" y2="12.714"/>
            <path d="M 10.005 8.795 A 0.286 0.286 0 0 1 10.291 8.509"/>
            <path d="M 5 11.286 A 0.286 0.286 0 0 1 5.286 11"/>
            <line x1="12.491" y1="13.78" x2="12.491" y2="15.208"/>
            <line x1="18.286" y1="13" x2="19.714" y2="13"/>
            <path d="M 25.504 6.286 A 0.286 0.286 0 0 1 25.79 6"/>
            <path d="M 25.504 11.286 A 0.286 0.286 0 0 1 25.79 11"/>
            <line x1="25.79" y1="13" x2="27.218" y2="13"/>
            <path d="M 25.79 13 A 0.286 0.286 0 0 1 25.504 12.714"/>
            <line x1="25.504" y1="11.286" x2="25.504" y2="12.714"/>
            <line x1="20" y1="10.223" x2="20" y2="8.795"/>
            <line x1="20.025" y1="15.208" x2="20.025" y2="13.78"/>
            <path d="M 0 11.286 A 0.286 0.286 0 0 1 0.286 11"/>
            <path d="M 2.5 11.286 A 0.286 0.286 0 0 1 2.786 11"/>
            <line x1="2.786" y1="13" x2="4.214" y2="13"/>
            <path d="M 2.786 13 A 0.286 0.286 0 0 1 2.5 12.714"/>
            <line x1="4.214" y1="11" x2="2.786" y2="11"/>
            <line x1="4.5" y1="12.714" x2="4.5" y2="11.286"/>
            <path d="M 4.214 11 A 0.286 0.286 0 0 1 4.5 11.286"/>
            <line x1="2.5" y1="11.286" x2="2.5" y2="12.714"/>
            <path d="M 2 10.223 A 0.286 0.286 0 0 1 1.714 10.509"/>
            <line x1="4.214" y1="6" x2="2.786" y2="6"/>
            <line x1="27.504" y1="10.223" x2="27.504" y2="8.795"/>
            <line x1="25.504" y1="8.795" x2="25.504" y2="10.223"/>
            <path d="M 7.504 6.286 A 0.286 0.286 0 0 1 7.79 6"/>
            <line x1="7.79" y1="8" x2="9.218" y2="8"/>
            <path d="M 7.79 8 A 0.286 0.286 0 0 1 7.504 7.714"/>
            <path d="M 9.504 7.714 A 0.286 0.286 0 0 1 9.218 8"/>
            <line x1="9.218" y1="6" x2="7.79" y2="6"/>
            <path d="M 9.218 6 A 0.286 0.286 0 0 1 9.504 6.286"/>
            <line x1="22.214" y1="11" x2="20.786" y2="11"/>
            <path d="M 14.205 13.494 A 0.286 0.286 0 0 1 14.491 13.78"/>
            <line x1="19.739" y1="13.494" x2="18.311" y2="13.494"/>
            <path d="M 28.005 11.286 A 0.286 0.286 0 0 1 28.291 11"/>
            <path d="M 22.5 12.714 A 0.286 0.286 0 0 1 22.214 13"/>
            <path d="M 0 8.795 A 0.286 0.286 0 0 1 0.286 8.509"/>
            <line x1="0.286" y1="13" x2="1.714" y2="13"/>
            <path d="M 11.719 8.509 A 0.286 0.286 0 0 1 12.005 8.795"/>
            <line x1="20.786" y1="13" x2="22.214" y2="13"/>
            <line x1="5" y1="11.286" x2="5" y2="12.714"/>
            <path d="M 30.005 7.714 A 0.286 0.286 0 0 1 29.719 8"/>
            <path d="M 29.719 6 A 0.286 0.286 0 0 1 30.005 6.286"/>
            <line x1="28.005" y1="6.286" x2="28.005" y2="7.714"/>
            <path d="M 19.739 13.494 A 0.286 0.286 0 0 1 20.025 13.78"/>
            <path d="M 2.786 8 A 0.286 0.286 0 0 1 2.5 7.714"/>
            <line x1="7" y1="10.223" x2="7" y2="8.795"/>
            <path d="M 10.005 13.78 A 0.286 0.286 0 0 1 10.291 13.494"/>
            <path d="M 12.005 15.208 A 0.286 0.286 0 0 1 11.719 15.494"/>
            <line x1="11.719" y1="13.494" x2="10.291" y2="13.494"/>
            <line x1="12.005" y1="15.208" x2="12.005" y2="13.78"/>
            <line x1="10.005" y1="13.78" x2="10.005" y2="15.208"/>
            <line x1="22.214" y1="6" x2="20.786" y2="6"/>
            <path d="M 10.291 10.509 A 0.286 0.286 0 0 1 10.005 10.223"/>
            <path d="M 30.491 11.286 A 0.286 0.286 0 0 1 30.777 11"/>
            <path d="M 23.298 15.494 A 0.286 0.286 0 0 1 23.012 15.208"/>
            <path d="M 4.214 6 A 0.286 0.286 0 0 1 4.5 6.286"/>
            <line x1="25.79" y1="8" x2="27.218" y2="8"/>
            <path d="M 25.79 8 A 0.286 0.286 0 0 1 25.504 7.714"/>
            <path d="M 27.504 7.714 A 0.286 0.286 0 0 1 27.218 8"/>
            <line x1="27.504" y1="7.714" x2="27.504" y2="6.286"/>
            <path d="M 27.218 6 A 0.286 0.286 0 0 1 27.504 6.286"/>
            <line x1="25.504" y1="6.286" x2="25.504" y2="7.714"/>
            <line x1="30.491" y1="11.286" x2="30.491" y2="12.714"/>
            <line x1="28.291" y1="13" x2="29.719" y2="13"/>
            <path d="M 30.005 12.714 A 0.286 0.286 0 0 1 29.719 13"/>
            <path d="M 9.218 11 A 0.286 0.286 0 0 1 9.504 11.286"/>
            <path d="M 30.777 13 A 0.286 0.286 0 0 1 30.491 12.714"/>
            <line x1="18" y1="8.795" x2="18" y2="10.223"/>
            <path d="M 2.786 10.509 A 0.286 0.286 0 0 1 2.5 10.223"/>
            <path d="M 20.5 6.286 A 0.286 0.286 0 0 1 20.786 6"/>
            <path d="M 30.491 8.795 A 0.286 0.286 0 0 1 30.777 8.509"/>
            <line x1="32.205" y1="8.509" x2="30.777" y2="8.509"/>
            <path d="M 32.205 8.509 A 0.286 0.286 0 0 1 32.491 8.795"/>
            <line x1="30.491" y1="8.795" x2="30.491" y2="10.223"/>
            <line x1="5" y1="8.795" x2="5" y2="10.223"/>
            <path d="M 23.012 13.78 A 0.286 0.286 0 0 1 23.298 13.494"/>
            <path d="M 25.012 15.208 A 0.286 0.286 0 0 1 24.726 15.494"/>
            <line x1="24.726" y1="13.494" x2="23.298" y2="13.494"/>
            <line x1="25.012" y1="15.208" x2="25.012" y2="13.78"/>
            <path d="M 24.726 13.494 A 0.286 0.286 0 0 1 25.012 13.78"/>
            <line x1="23.012" y1="13.78" x2="23.012" y2="15.208"/>
            <path d="M 0.286 13 A 0.286 0.286 0 0 1 0 12.714"/>
            <line x1="20" y1="7.714" x2="20" y2="6.286"/>
            <path d="M 28.291 13 A 0.286 0.286 0 0 1 28.005 12.714"/>
            <line x1="29.719" y1="11" x2="28.291" y2="11"/>
            <path d="M 29.719 11 A 0.286 0.286 0 0 1 30.005 11.286"/>
            <line x1="28.005" y1="11.286" x2="28.005" y2="12.714"/>
            <line x1="10.291" y1="13" x2="11.719" y2="13"/>
            <path d="M 10.291 13 A 0.286 0.286 0 0 1 10.005 12.714"/>
            <line x1="12.005" y1="12.714" x2="12.005" y2="11.286"/>
            <path d="M 11.719 11 A 0.286 0.286 0 0 1 12.005 11.286"/>
            <line x1="10.005" y1="11.286" x2="10.005" y2="12.714"/>
            <path d="M 2.5 8.795 A 0.286 0.286 0 0 1 2.786 8.509"/>
            <line x1="7.504" y1="11.286" x2="7.504" y2="12.714"/>
            <path d="M 7.504 11.286 A 0.286 0.286 0 0 1 7.79 11"/>
            <path d="M 7.79 13 A 0.286 0.286 0 0 1 7.504 12.714"/>
            <path d="M 9.504 12.714 A 0.286 0.286 0 0 1 9.218 13"/>
            <line x1="9.218" y1="11" x2="7.79" y2="11"/>
            <line x1="9.504" y1="12.714" x2="9.504" y2="11.286"/>
            <line x1="19.714" y1="11" x2="18.286" y2="11"/>
            <line x1="2.786" y1="8" x2="4.214" y2="8"/>
            <path d="M 4.5 7.714 A 0.286 0.286 0 0 1 4.214 8"/>
            <line x1="30.777" y1="13" x2="32.205" y2="13"/>
            <path d="M 25.79 10.509 A 0.286 0.286 0 0 1 25.504 10.223"/>
            <line x1="25" y1="10.223" x2="25" y2="8.795"/>
            <path d="M 18 6.286 A 0.286 0.286 0 0 1 18.286 6"/>
            <line x1="6.714" y1="11" x2="5.286" y2="11"/>
            <line x1="22.5" y1="7.714" x2="22.5" y2="6.286"/>
            <line x1="22.5" y1="12.714" x2="22.5" y2="11.286"/>
            <path d="M 12.005 7.714 A 0.286 0.286 0 0 1 11.719 8"/>
            <line x1="1.714" y1="11" x2="0.286" y2="11"/>
            <path d="M 1.714 11 A 0.286 0.286 0 0 1 2 11.286"/>
            <line x1="23.286" y1="10.509" x2="24.714" y2="10.509"/>
            <path d="M 20.786 13 A 0.286 0.286 0 0 1 20.5 12.714"/>
            <path d="M 18.025 13.78 A 0.286 0.286 0 0 1 18.311 13.494"/>
            <path d="M 18.311 15.494 A 0.286 0.286 0 0 1 18.025 15.208"/>
            <path d="M 20.025 15.208 A 0.286 0.286 0 0 1 19.739 15.494"/>
            <path d="M 4.5 10.223 A 0.286 0.286 0 0 1 4.214 10.509"/>
            <line x1="0.286" y1="10.509" x2="1.714" y2="10.509"/>
            <line x1="2.786" y1="10.509" x2="4.214" y2="10.509"/>
            <path d="M 12.491 13.78 A 0.286 0.286 0 0 1 12.777 13.494"/>
            <path d="M 12.777 15.494 A 0.286 0.286 0 0 1 12.491 15.208"/>
            <line x1="14.205" y1="13.494" x2="12.777" y2="13.494"/>
            <line x1="14.491" y1="15.208" x2="14.491" y2="13.78"/>
            <path d="M 10.291 8 A 0.286 0.286 0 0 1 10.005 7.714"/>
            <line x1="11.719" y1="6" x2="10.291" y2="6"/>
            <line x1="12.005" y1="7.714" x2="12.005" y2="6.286"/>
            <path d="M 11.719 6 A 0.286 0.286 0 0 1 12.005 6.286"/>
            <line x1="10.005" y1="6.286" x2="10.005" y2="7.714"/>
            <path d="M 2 7.714 A 0.286 0.286 0 0 1 1.714 8"/>
            <path d="M 20.786 8 A 0.286 0.286 0 0 1 20.5 7.714"/>
            <path d="M 20 12.714 A 0.286 0.286 0 0 1 19.714 13"/>
            <line x1="2.5" y1="8.795" x2="2.5" y2="10.223"/>
            <path d="M 12.005 10.223 A 0.286 0.286 0 0 1 11.719 10.509"/>
            <line x1="19.714" y1="8.509" x2="18.286" y2="8.509"/>
            <path d="M 18 8.795 A 0.286 0.286 0 0 1 18.286 8.509"/>
            <line x1="20.5" y1="11.286" x2="20.5" y2="12.714"/>
            <path d="M 0.286 10.509 A 0.286 0.286 0 0 1 0 10.223"/>
            <path d="M 32.491 12.714 A 0.286 0.286 0 0 1 32.205 13"/>
            <path d="M 24.714 8.509 A 0.286 0.286 0 0 1 25 8.795"/>
            <line x1="1.714" y1="6" x2="0.286" y2="6"/>
            <line x1="5.286" y1="13" x2="6.714" y2="13"/>
            <path d="M 20 7.714 A 0.286 0.286 0 0 1 19.714 8"/>
            <path d="M 27.504 10.223 A 0.286 0.286 0 0 1 27.218 10.509"/>
            <path d="M 20.5 11.286 A 0.286 0.286 0 0 1 20.786 11"/>
            <line x1="20.786" y1="8" x2="22.214" y2="8"/>
            <path d="M 25.504 8.795 A 0.286 0.286 0 0 1 25.79 8.509"/>
            <line x1="25.79" y1="10.509" x2="27.218" y2="10.509"/>
            <path d="M 27.218 8.509 A 0.286 0.286 0 0 1 27.504 8.795"/>
            <path d="M 18.286 10.509 A 0.286 0.286 0 0 1 18 10.223"/>
            <line x1="2" y1="7.714" x2="2" y2="6.286"/>
            <path d="M 1.714 6 A 0.286 0.286 0 0 1 2 6.286"/>
            <line x1="18.286" y1="8" x2="19.714" y2="8"/>
            <line x1="19.714" y1="6" x2="18.286" y2="6"/>
            <path d="M 19.714 6 A 0.286 0.286 0 0 1 20 6.286"/>
            <line x1="18" y1="6.286" x2="18" y2="7.714"/>
            <line x1="11.719" y1="8.509" x2="10.291" y2="8.509"/>
            <line x1="12.005" y1="10.223" x2="12.005" y2="8.795"/>
            <line x1="10.005" y1="8.795" x2="10.005" y2="10.223"/>
            <line x1="1.714" y1="8.509" x2="0.286" y2="8.509"/>
            <line x1="4.5" y1="10.223" x2="4.5" y2="8.795"/>
            <path d="M 20 10.223 A 0.286 0.286 0 0 1 19.714 10.509"/>
            <line x1="20" y1="12.714" x2="20" y2="11.286"/>
            <path d="M 6.714 11 A 0.286 0.286 0 0 1 7 11.286"/>
            <path d="M 19.714 8.509 A 0.286 0.286 0 0 1 20 8.795"/>
            <path d="M 5.286 13 A 0.286 0.286 0 0 1 5 12.714"/>
            <path d="M 5.286 10.509 A 0.286 0.286 0 0 1 5 10.223"/>
            <line x1="2" y1="10.223" x2="2" y2="8.795"/>
            <path d="M 7 12.714 A 0.286 0.286 0 0 1 6.714 13"/>
            <line x1="7" y1="12.714" x2="7" y2="11.286"/>
            <path d="M 22.214 11 A 0.286 0.286 0 0 1 22.5 11.286"/>
            <path d="M 18.286 13 A 0.286 0.286 0 0 1 18 12.714"/>
            <path d="M 4.214 8.509 A 0.286 0.286 0 0 1 4.5 8.795"/>
            <path d="M 19.714 11 A 0.286 0.286 0 0 1 20 11.286"/>
            <line x1="23" y1="8.795" x2="23" y2="10.223"/>
            <path d="M 23.286 10.509 A 0.286 0.286 0 0 1 23 10.223"/>
            <line x1="20.5" y1="6.286" x2="20.5" y2="7.714"/>
            <line x1="4.214" y1="8.509" x2="2.786" y2="8.509"/>
            <line x1="5.286" y1="10.509" x2="6.714" y2="10.509"/>
            <path d="M 22.5 7.714 A 0.286 0.286 0 0 1 22.214 8"/>
            <path d="M 5 8.795 A 0.286 0.286 0 0 1 5.286 8.509"/>
            <line x1="6.714" y1="8.509" x2="5.286" y2="8.509"/>
            <path d="M 25 10.223 A 0.286 0.286 0 0 1 24.714 10.509"/>
        </g>
    </g>
</svg>